<?xml version="1.0" encoding="UTF-8"?>
<!-- Creator: CorelDRAW X8 -->
<svg xmlns="http://www.w3.org/2000/svg" xmlns:xlink="http://www.w3.org/1999/xlink" xml:space="preserve" width="990px" height="560px" version="1.1" style="shape-rendering:geometricPrecision; text-rendering:geometricPrecision; image-rendering:optimizeQuality; fill-rule:evenodd; clip-rule:evenodd" viewBox="0 0 990 560">
 <defs>
  <style type="text/css">
   <![CDATA[
    .fil0 {fill:none}
    .fil2 {fill:#EA3538}
    .fil1 {fill:#363334}
    .fil3 {fill:#373435;fill-rule:nonzero}
   ]]>
  </style>
 </defs>
 <g id="Layer_x0020_1">
  <metadata id="CorelCorpID_0Corel-Layer"></metadata>
  <rect class="fil0" width="990" height="560"></rect>
  <rect class="fil0" width="990" height="560"></rect>
  <rect class="fil0" x="45" y="35" width="900" height="491"></rect>
  <g id="_1671038248160">
   <polygon class="fil1" points="455,279 455,279 535,279 535,298 481,298 481,332 532,332 532,352 481,352 481,390 537,390 537,410 455,410 "></polygon>
   <path class="fil1" d="M438 283l0 0 -2 21c0,-1 -1,-1 -1,-1 -13,-5 -22,-7 -29,-7 -14,0 -26,5 -34,14 -9,8 -13,20 -13,35 0,14 4,25 13,34 9,9 21,13 35,13 5,0 12,-2 22,-5 4,-1 6,-2 8,-2l2 20c-2,1 -4,1 -7,2 -12,4 -21,5 -27,5 -23,0 -40,-6 -53,-18 -13,-12 -20,-28 -20,-49 0,-21 7,-37 20,-50 13,-13 30,-19 52,-19 6,0 15,2 27,5 3,1 6,2 7,2z"></path>
   <path class="fil1" d="M251 279l0 0 -51 131 26 0 11 -31 57 0 11 31 27 0 -50 -131 -31 0zm15 22l0 0 -22 58 43 0 -21 -58z"></path>
   <path class="fil1" d="M121 279l0 0 39 0c17,0 30,3 38,10 8,6 12,17 12,31 0,12 -4,22 -13,29 -8,7 -20,11 -36,11l-14 0 0 50 -26 0 0 -131zm26 18l0 0 0 43 11 0c8,0 15,0 19,-4 5,-4 7,-9 7,-16 0,-8 -2,-13 -7,-17 -4,-4 -10,-6 -18,-6l-12 0z"></path>
   <path class="fil1" d="M568 81l0 0 -3 20c0,0 -1,0 -3,-1 -13,-4 -23,-7 -30,-7 -15,0 -27,5 -36,14 -9,10 -14,21 -14,36 0,14 5,25 13,34 9,9 21,13 35,13 3,0 8,-1 14,-3 1,0 2,-1 3,-1l0 -33 -24 0 0 -19 48 0 0 68c-10,3 -18,5 -24,6 -6,2 -12,2 -18,2 -23,0 -41,-6 -54,-18 -13,-12 -19,-29 -19,-49 0,-22 6,-38 20,-51 13,-12 31,-18 55,-18 5,0 14,1 26,4 5,1 8,2 11,3z"></path>
   <path class="fil1" d="M326 77l0 0 33 0 27 52 6 11 0 0 20 38 0 -16 0 0 0 -58 0 -27 24 0 0 131 -32 0 -50 -94c0,-1 -1,-1 -1,-2l-3 -7 0 18 0 0 0 26 0 59 -24 0 0 -59 0 -62 0 -10z"></path>
   <polygon class="fil1" points="280,77 280,77 306,77 306,208 280,208 "></polygon>
   <path class="fil1" d="M255 80l-2 21c-12,-7 -48,-14 -50,5 -1,6 4,13 13,18 7,3 13,7 17,9 10,5 16,10 20,15 5,6 7,13 7,21 0,28 -25,42 -50,42 -6,0 -17,-3 -31,-7 -2,-1 -3,-1 -4,-1l3 -23c7,4 13,7 18,8 5,2 10,2 14,2 10,0 23,-4 23,-17 0,-9 -17,-19 -26,-23 -10,-6 -17,-11 -22,-15 -3,-3 -5,-7 -6,-11 -2,-4 -3,-9 -3,-13 0,-43 50,-38 79,-31z"></path>
   <polygon class="fil1" points="129,77 129,77 155,77 155,208 129,208 "></polygon>
   <path class="fil1" d="M16 77l43 0c16,0 28,2 36,8 14,10 16,33 5,46 -5,6 -12,9 -20,11 3,2 6,3 9,6 2,2 5,7 7,14l19 46 -28 0 -14 -38c-2,-6 -5,-10 -8,-12 -4,-3 -9,-4 -15,-4l-8 0 0 54 -26 0 0 -131zm26 18l0 39c10,0 24,2 32,-5 9,-7 10,-23 0,-29 -8,-6 -22,-5 -32,-5z"></path>
   <path class="fil1" d="M661 135c0,0 -41,-58 -100,-100l276 0 -197 21c15,15 42,46 50,58l-29 21z"></path>
   <path class="fil2" d="M684 169l29 -22c1,1 24,37 39,74 6,-9 111,-181 232,-214 -72,35 -194,168 -232,337 -9,-56 -37,-131 -68,-175z"></path>
   <path class="fil1" d="M591 227c0,0 99,-137 320,-201 0,0 -183,62 -320,201z"></path>
   <path class="fil1" d="M633 281l-2 21c-11,-7 -48,-13 -50,5 0,6 4,13 14,18 6,4 13,7 17,9 9,5 15,10 19,15 5,6 7,13 7,21 0,28 -25,42 -50,42 -6,0 -16,-3 -31,-7 -1,-1 -3,-1 -3,-1l2 -23c7,4 14,7 19,8 5,2 9,2 13,2 11,0 24,-4 24,-17 0,-9 -18,-19 -26,-23 -11,-6 -18,-11 -22,-15 -3,-3 -6,-7 -7,-11 -2,-4 -2,-8 -2,-13 0,-43 50,-38 78,-31z"></path>
   <path class="fil1" d="M96 282l-2 20c-12,-7 -48,-13 -50,5 -1,6 3,13 13,18 6,4 13,7 17,10 9,5 16,10 20,15 5,5 7,13 7,21 0,28 -25,41 -50,41 -6,0 -17,-2 -31,-7 -2,0 -3,-1 -4,-1l3 -22c7,3 13,6 18,8 5,1 10,2 14,2 10,0 23,-5 23,-17 0,-10 -17,-19 -26,-24 -10,-5 -17,-10 -22,-15 -3,-3 -5,-7 -6,-11 -2,-4 -3,-8 -3,-13 0,-43 50,-38 79,-30z"></path>
   <path class="fil3" d="M42 552l5 0c0,0 0,0 0,-1l-10 -24c0,0 0,0 0,0 6,-1 10,-7 10,-14 0,-8 -6,-14 -14,-14l-16 0c0,0 -1,0 -1,0l0 52c0,1 1,1 1,1l4 0c0,0 1,0 1,-1l0 -23c0,0 0,0 0,0l10 0c0,0 0,0 0,0l10 24c0,0 0,0 0,0zm-20 -49l11 0c5,0 8,4 8,10 0,6 -3,10 -8,10l-11 0c0,0 0,0 0,0l0 -19c0,0 0,-1 0,-1z"></path>
   <path id="1" class="fil3" d="M96 552l3 0c1,0 1,0 1,-1l0 -52c0,0 0,0 -1,0l-3 0c-1,0 -1,0 -1,0l0 52c0,1 0,1 1,1z"></path>
   <path id="2" class="fil3" d="M164 553c10,0 16,-6 16,-14 0,-8 -6,-11 -14,-16 -8,-4 -11,-6 -11,-12 0,-5 3,-8 9,-8 6,0 10,4 10,9l0 2c0,1 0,1 1,1l3 0c1,0 1,0 1,-1l0 -2c0,-8 -6,-14 -15,-14 -9,0 -15,5 -15,13 0,9 6,12 14,16 7,4 11,7 11,12 0,5 -3,9 -9,9 -7,0 -11,-4 -11,-9l0 -2c0,-1 0,-1 -1,-1l-3 0c-1,0 -1,0 -1,1l0 2c0,8 6,14 15,14z"></path>
   <path id="3" class="fil3" d="M257 503l0 -4c0,0 0,0 -1,0l-28 0c0,0 0,0 0,0l0 52c0,1 0,1 0,1l28 0c1,0 1,0 1,-1l0 -3c0,0 0,-1 -1,-1l-23 0c0,0 0,0 0,0l0 -19c0,0 0,0 0,0l16 0c0,0 1,-1 1,-1l0 -3c0,-1 -1,-1 -1,-1l-16 0c0,0 0,0 0,0l0 -19c0,0 0,-1 0,-1l23 0c1,0 1,0 1,0z"></path>
   <path id="4" class="fil3" d="M355 552l4 0c0,0 0,0 0,-1l-14 -52c0,0 0,0 -1,0l-5 0c0,0 0,0 -1,0l-14 52c0,1 0,1 1,1l4 0c0,0 1,0 1,-1l2 -9c0,0 0,0 1,0l18 0c0,0 0,0 0,0l3 9c0,1 0,1 1,1zm-21 -15l8 -31c0,0 0,0 0,0l8 31c0,0 0,0 0,0l-16 0c0,0 -1,0 0,0z"></path>
   <path id="5" class="fil3" d="M430 552l4 0c0,0 1,0 1,-1l-1 -40c0,0 1,0 1,0l20 41c1,0 1,0 1,0l4 0c1,0 1,0 1,-1l0 -52c0,0 0,0 -1,0l-4 0c0,0 0,0 0,0l0 40c0,1 -1,1 -1,0l-20 -40c0,0 -1,0 -1,0l-4 0c-1,0 -1,0 -1,0l0 52c0,1 0,1 1,1z"></path>
   <path id="6" class="fil3" d="M541 503l0 -4c0,0 -1,0 -1,0l-28 0c0,0 -1,0 -1,0l0 52c0,1 1,1 1,1l28 0c0,0 1,0 1,-1l0 -3c0,0 -1,-1 -1,-1l-23 0c0,0 0,0 0,0l0 -19c0,0 0,0 0,0l15 0c1,0 1,-1 1,-1l0 -3c0,-1 0,-1 -1,-1l-15 0c0,0 0,0 0,0l0 -19c0,0 0,-1 0,-1l23 0c0,0 1,0 1,0z"></path>
   <path id="7" class="fil3" d="M598 552l4 0c1,0 1,0 1,-1l9 -41c0,0 0,0 0,0l9 41c0,1 0,1 0,1l4 0c1,0 1,0 1,-1l12 -51c0,-1 0,-1 0,-1l-4 0c-1,0 -1,0 -1,0l-9 41c0,1 -1,1 -1,0l-9 -41c0,0 0,0 0,0l-4 0c-1,0 -1,0 -1,0l-8 41c-1,1 -1,1 -1,0l-9 -41c0,0 -1,0 -1,0l-4 0c-1,0 -1,0 -1,1l13 51c0,1 0,1 0,1z"></path>
  </g>
 </g>
</svg>
